# xmcd CD database file
#
# Track frame offsets:
#	150
#	15419
#	35103
#	50993
#	67659
#	86199
#	100290
#	118150
#	136771
#	147484
#	164675
#	182043
#
# Disc length: 2534 seconds
#
# Revision: 2
# Processed by: cddbd v1.5.2PL0 Copyright (c) Steve Scherf et al.
# Submitted via: CDex 1.51
#
DISCID=af09e40c
DTITLE=風 - 時は流れて…
DYEAR=1976
DGENRE=Folk
TTITLE0=北国列車
TTITLE1=時の流れ
TTITLE2=古都
TTITLE3=何かいいことありそうな明日
TTITLE4=忘れゆく歴史
TTITLE5=三丁目の夕焼け
TTITLE6=あの唄はもう唄わないのですか
TTITLE7=ふるさとの町は今も
TTITLE8=まぶしすぎる街
TTITLE9=あなたへ
TTITLE10=暦の上では
TTITLE11=終りのない唄
EXTD=YEAR: 1976
EXTT0=
EXTT1=
EXTT2=
EXTT3=
EXTT4=
EXTT5=
EXTT6=
EXTT7=
EXTT8=
EXTT9=
EXTT10=
EXTT11=
PLAYORDER=
